<?xml version="1.0" encoding="UTF-8"?>
<!DOCTYPE svg PUBLIC "-//W3C//DTD SVG 1.1//EN" "http://www.w3.org/Graphics/SVG/1.1/DTD/svg11.dtd">
<!-- Creator: CorelDRAW 2018 (64-Bit) -->
<svg xmlns="http://www.w3.org/2000/svg" xml:space="preserve" width="90mm" height="85mm" version="1.1" style="shape-rendering:geometricPrecision; text-rendering:geometricPrecision; image-rendering:optimizeQuality; fill-rule:evenodd; clip-rule:evenodd"
viewBox="0 0 9000 8500"
 xmlns:xlink="http://www.w3.org/1999/xlink">
 <defs>
  <style type="text/css">
   <![CDATA[
    .fil0 {fill:#FEFEFE}
    .fil2 {fill:#EBECEC}
    .fil3 {fill:#6C935E}
    .fil1 {fill:#80AD71}
   ]]>
  </style>
 </defs>
 <g id="Katman_x0020_1">
  <metadata id="CorelCorpID_0Corel-Layer"/>
  <g id="_2281351279248">
   <path class="fil0" d="M210.55 2305.32c-0.55,-263.35 -82.97,-646.94 174.11,-770.99 206.43,-99.62 414.8,-211.28 620.07,-315.69 206.24,-104.9 412.61,-211.79 619.28,-315.38 98.04,-49.15 224.42,-147.13 333.67,-69.73 92.85,65.77 57.52,357.66 58.06,506.92 5.86,1638.21 -6.41,3286.28 3.77,4923.46 2.68,430.26 -222.74,310.42 -530.31,318.5l-287.72 1.4c-200.18,0.3 -801.77,13.37 -883.42,-15.46 -156.67,-55.32 -106.01,-363.68 -105.9,-505.19l-1.61 -3757.84zm2930.38 4573.29l-745.42 -0.06 -7 -6771.74c153.17,7.87 324.59,0.52 479.62,-0.71 266.78,-2.12 285.05,-68.85 279.73,184.6 -6.49,309.74 1.54,630.95 1.54,942.16l0 4725.03c0,260.8 24.62,680.06 -8.47,920.72zm17.63 -6788.85c-206.93,-3.71 -413.25,0.63 -620.08,-3.51 -181.88,-3.64 -294.17,87.7 -449.67,170.78l-1610.85 868.9c-551.12,293.17 -463.53,140.36 -463.37,784.11 0.21,831.87 0.98,1663.81 -0.44,2495.67 -1.4,814.6 -25.95,1676.32 2.69,2486.36l3133.14 1.65 8.58 -6803.96z"/>
   <path class="fil0" d="M3831.6 7325.17c-16.7,120.13 -2.65,725.47 -3.09,930.57 -0.35,163.06 -46.68,194.33 104.38,192.97 143.66,-1.31 1183.84,15.62 1227.42,-7.99l8.06 -1116.56 -1336.77 1.01z"/>
   <polygon class="fil0" points="1920.96,8436.65 3261.09,8435.83 3258.39,7325.24 1920.71,7325.44 "/>
   <path class="fil1" d="M7080.39 6584.83c-18.64,-583.06 -0.32,-1251.19 -0.67,-1852.12 -0.08,-143.32 -53.23,-270.43 100.19,-257 455.57,39.9 906.68,44.59 1378.91,98.95 215.26,24.78 187.84,-51.48 188.07,181.99 0.12,121.41 0.38,242.84 0.33,364.28 -0.07,191.59 19.21,1380.2 -10.19,1466.3l-1656.64 -2.4zm-329.53 -15.86c-43.13,30.43 -1346.55,13.87 -1577.53,14.02 -422.38,0.28 -381.53,34.56 -374.63,-154.18 25.41,-695.44 -21.84,-1415.79 2.58,-2119.8 179.6,12.53 1945.58,129.12 1962.56,140.73l-12.98 2119.23zm327.57 -4624.49l5.02 -6.71 1664.68 894.93 -2.17 1566.85 -1666.63 -134.59 -0.9 -2320.48zm-311.92 2289.48c-188.26,8.82 -446.02,-34.26 -644.47,-43.49 -192.06,-8.94 -432.15,-33.51 -623.71,-56.96 -208.08,-25.46 -436.6,-30.49 -646.38,-46.94 -93.89,-7.36 -57.54,-194.66 -57.32,-281.91 1.02,-416.88 -14.16,-3037.98 7.03,-3087.33 70.93,10.49 1608.37,848.38 1790.47,953.96 202.72,117.54 174.46,-10.19 174.45,512.67l-0.07 2050zm-2319.86 2646.15c-172.78,-3.27 -348.15,3.33 -519.94,-2.23 -326.88,-10.56 -248.73,72.39 -259.01,-251.88 -10.8,-340.89 -0.96,-698.21 -0.97,-1040.93l-0.34 -4177.21c-0.04,-341.95 -10.61,-701.2 1.06,-1041.08 11.27,-327.98 -74.02,-244.92 259.28,-257.24 149.27,-5.52 362.5,-9.75 510.49,4.8l9.43 6765.77zm-792.26 10.66c710.28,27.55 1465.39,1.55 2180.91,2.03 900.32,0.59 1827.22,-8.36 2724.34,0.29 96.77,0.93 180.55,-1.46 278.45,4.37 119.21,7.11 141.72,-17.4 134.35,-135.82 -21.39,-343.8 -4.28,-742.98 -4.08,-1092.88 0.44,-725.37 0.54,-1450.73 0.52,-2176.1 -0.01,-182.22 1.19,-365.11 -1.06,-547.24 -2.67,-216.14 65.14,-314.49 -137.62,-409.15 -218.11,-101.82 -483.69,-267.62 -697.48,-390.42 -460.33,-264.41 -932.39,-517.75 -1395.13,-780.22 -446.25,-253.11 -984.29,-509.01 -1407.14,-777.38 -215.84,-137 -471.22,-263.02 -697.09,-390.61 -221.04,-124.86 -186.65,-103.01 -441.95,-105.2 -177.82,-1.53 -359.36,-3.48 -541.49,1.66l4.47 6796.67z"/>
   <path class="fil1" d="M1361.78 7334.51c-34.98,-23.7 -1004.74,-12.74 -1195,-11.96 -114.26,0.46 -156.45,-36.13 -152.97,87.84 4.45,158.32 0.67,321.24 0.85,480.13 0.74,666 -40.26,560.08 167.26,560.61 219.07,0.56 1101.67,15.15 1183.77,-9.9l-3.91 -1106.72z"/>
   <path class="fil2" d="M2388.51 106.81l7 6771.74 745.42 0.06c33.09,-240.66 8.47,-659.92 8.47,-920.72l0 -4725.03c0,-311.21 -8.03,-632.42 -1.54,-942.16 5.32,-253.45 -12.95,-186.72 -279.73,-184.6 -155.03,1.23 -326.45,8.58 -479.62,0.71z"/>
   <path class="fil2" d="M5733.95 8448.25c386.21,24.96 839.64,-3.41 1235.29,1.68 150.32,1.94 101.21,-40.95 101.71,-201.8 0.9,-296.26 6.87,-632.19 0.29,-922.08l-1343.25 2.56 5.96 1119.64z"/>
   <path class="fil2" d="M7624.37 7328.52c-9.58,257.93 -1.26,648.17 0.21,927.22 0.88,167.91 -46.81,191.88 112.88,190.33 150.68,-1.45 1172.52,15.96 1230.28,-8.85l0.17 -1112.73 -1343.54 4.03z"/>
   <path class="fil0" d="M329.97 4010.06c66.46,370.63 207.31,109.94 180.31,-149.98 -39.2,-377.53 -222.28,-84.06 -180.31,149.98z"/>
   <path class="fil3" d="M4446.65 6880.11l-9.43 -6765.77c-147.99,-14.55 -361.22,-10.32 -510.49,-4.8 -333.3,12.32 -248.01,-70.74 -259.28,257.24 -11.67,339.88 -1.1,699.13 -1.06,1041.08l0.34 4177.21c0.01,342.72 -9.83,700.04 0.97,1040.93 10.28,324.27 -67.87,241.32 259.01,251.88 171.79,5.56 347.16,-1.04 519.94,2.23z"/>
  </g>
 </g>
</svg>
