<?xml version="1.0" encoding="UTF-8"?>
<!DOCTYPE svg PUBLIC "-//W3C//DTD SVG 1.1//EN" "http://www.w3.org/Graphics/SVG/1.1/DTD/svg11.dtd">
<!-- Creator: CorelDRAW 2018 (64-Bit) -->
<svg xmlns="http://www.w3.org/2000/svg" xml:space="preserve" width="300mm" height="87mm" version="1.1" style="shape-rendering:geometricPrecision; text-rendering:geometricPrecision; image-rendering:optimizeQuality; fill-rule:evenodd; clip-rule:evenodd"
viewBox="0 0 30000 8700"
 xmlns:xlink="http://www.w3.org/1999/xlink">
 <defs>
  <style type="text/css">
   <![CDATA[
    .fil2 {fill:#FEFEFE}
    .fil1 {fill:#EBECEC}
    .fil3 {fill:#D9DADA}
    .fil4 {fill:#6C935E}
    .fil0 {fill:#80AD71}
   ]]>
  </style>
 </defs>
 <g id="Katman_x0020_1">
  <metadata id="CorelCorpID_0Corel-Layer"/>
  <g id="_2281352302032">
   <path class="fil0" d="M17305.67 983.44c-857.99,48.76 -813.45,272.8 -1037.15,998.19l-963.96 3112.91c-79.86,258.79 -157.85,520.05 -242.67,777.14 -43.49,131.81 -72.69,253.76 -110.91,385.04 -41.47,142.44 -106.75,269.98 -153.8,408.68 -139.67,411.66 253.29,342.34 527.05,339.86 305.6,-2.78 635.59,75.66 743.96,-288.78 40.11,-134.88 56.6,-274.24 99.83,-410.96 40.45,-127.95 87.82,-251.67 127.9,-381.36 79.95,-258.69 165.08,-515.6 242.08,-775.31 231.75,-781.68 479.05,-1555.03 713.36,-2332.49 13.01,-43.14 163.85,-727.01 230.57,-602.23 61.86,115.69 123.38,578.76 203.44,789.67 93.1,245.27 162.28,524.9 241.15,778.27 161.83,519.98 320.07,1041.51 477.55,1562.83 76.61,253.59 151.25,533.8 239.17,780.97 63.4,178.26 163.23,662.27 258.04,764.6 144.37,155.82 736.78,118.09 946.07,108.75 415.66,-18.55 245.85,-307 142.95,-565.36 -90.63,-227.56 -161.07,-528.22 -236.82,-770.39l-718.35 -2340.77c-157.55,-519.76 -327.96,-1040.19 -477.35,-1561.59 -71.15,-248.35 -116.58,-519.25 -362.6,-657.09 -232.11,-130.03 -628.72,-135.4 -889.51,-120.58z"/>
   <path class="fil0" d="M7503.99 6635.39c-18.64,-583.06 -0.32,-1251.19 -0.67,-1852.12 -0.08,-143.32 -53.23,-270.43 100.19,-257 455.57,39.9 906.68,44.59 1378.91,98.95 215.26,24.78 187.84,-51.48 188.07,181.99 0.12,121.41 0.38,242.84 0.33,364.28 -0.07,191.59 19.21,1380.2 -10.19,1466.3l-1656.64 -2.4zm-329.53 -15.86c-43.13,30.43 -1346.55,13.87 -1577.53,14.02 -422.38,0.28 -381.53,34.56 -374.63,-154.18 25.41,-695.44 -21.84,-1415.79 2.58,-2119.8 179.6,12.53 1945.58,129.12 1962.56,140.73l-12.98 2119.23zm327.57 -4624.49l5.02 -6.71 1664.68 894.93 -2.17 1566.85 -1666.63 -134.59 -0.9 -2320.48zm-311.92 2289.48c-188.26,8.82 -446.02,-34.26 -644.47,-43.49 -192.06,-8.94 -432.15,-33.51 -623.71,-56.96 -208.08,-25.46 -436.6,-30.49 -646.38,-46.94 -93.89,-7.36 -57.54,-194.66 -57.32,-281.91 1.02,-416.88 -14.16,-3037.98 7.03,-3087.33 70.93,10.49 1608.37,848.38 1790.47,953.96 202.72,117.54 174.46,-10.19 174.45,512.67l-0.07 2050zm-2319.86 2646.15c-172.78,-3.27 -348.15,3.33 -519.94,-2.23 -326.88,-10.56 -248.73,72.39 -259.01,-251.88 -10.8,-340.89 -0.96,-698.21 -0.97,-1040.93l-0.34 -4177.21c-0.04,-341.95 -10.61,-701.2 1.06,-1041.08 11.27,-327.98 -74.02,-244.92 259.28,-257.24 149.27,-5.52 362.5,-9.75 510.49,4.8l9.43 6765.77zm-792.26 10.66c710.28,27.55 1465.39,1.55 2180.91,2.03 900.32,0.59 1827.22,-8.36 2724.34,0.29 96.77,0.93 180.55,-1.46 278.45,4.37 119.21,7.11 141.72,-17.4 134.35,-135.82 -21.39,-343.8 -4.28,-742.98 -4.08,-1092.88 0.44,-725.37 0.54,-1450.73 0.52,-2176.1 -0.01,-182.22 1.19,-365.11 -1.06,-547.24 -2.67,-216.14 65.14,-314.49 -137.62,-409.15 -218.11,-101.82 -483.69,-267.62 -697.48,-390.42 -460.33,-264.41 -932.39,-517.75 -1395.13,-780.22 -446.25,-253.11 -984.29,-509.01 -1407.14,-777.38 -215.84,-137 -471.22,-263.02 -697.09,-390.61 -221.04,-124.86 -186.65,-103.01 -441.95,-105.2 -177.82,-1.53 -359.36,-3.48 -541.49,1.66l4.47 6796.67z"/>
   <path class="fil0" d="M1785.38 7385.07c-34.98,-23.7 -1004.74,-12.74 -1195,-11.96 -114.26,0.46 -156.45,-36.13 -152.97,87.84 4.45,158.32 0.67,321.24 0.85,480.13 0.74,666 -40.26,560.08 167.26,560.61 219.07,0.56 1101.67,15.15 1183.77,-9.9l-3.91 -1106.72z"/>
  </g>
  <g id="_2281352302384">
   <path class="fil1" d="M20738.09 6967.73c247.37,54.54 668.43,26.73 936.43,26.59 322.11,-0.17 644.22,0.24 966.33,0.12 322.16,-0.12 644.68,-1.54 966.79,0.6 329.93,2.2 485.6,-27.34 766.29,-204.44 460.95,-290.82 647.24,-688.56 725.57,-1214.64 75.19,-505 9.25,-1175.21 -261.68,-1619.56 -702.78,-1152.62 -2766.7,-140.56 -2935.79,-926.51 -53.27,-247.54 -50.05,-588.86 113.93,-796.55 177.23,-224.46 550.58,-157.23 815.09,-158.84 321.91,-1.96 644.38,-0.06 966.35,-0.06 283.57,0 686.44,26.09 953.81,-22.53 28.64,-142.92 65.64,-959.36 -9.82,-1036.6 -74.89,-76.66 -910.45,-39.84 -1073.34,-39.96 -482.07,-0.37 -1731.15,-68.44 -2115.38,102.16 -548.12,243.37 -847.52,710.66 -920.28,1295.38 -68.9,553.65 7.03,1331.73 435.35,1739.1 467.88,445.02 1225.85,390.59 1824.04,388.51 271.8,-0.94 734.32,-46.55 902.24,210.13 147.38,225.27 116.44,686.46 -1.72,920.31 -185,366.1 -474.51,252.16 -847.22,255.75 -369.55,3.56 -740.98,-0.21 -1110.77,-0.01 -163.87,0.08 -997.17,-37.57 -1076.03,34.67 -82.47,75.54 -43.38,897.9 -20.19,1046.38z"/>
   <path class="fil1" d="M26842.24 977.25c-540.17,26.86 -906.33,329.93 -1062.8,842.92 -111.89,366.83 -60.07,1406.73 -61.21,1844.79 -1.65,636.18 -1.83,1273.5 0.66,1909.66 2.19,561.21 -36.94,1064.6 572.05,1341.59 268.97,122.33 1474.38,70.79 1843.53,70.59 318.64,-0.17 641.3,5.34 959.37,0.48 122.72,-1.88 388.88,19.29 483.53,3.14 175.54,-29.94 126.23,-236.58 120.02,-367.19 -7.56,-158.98 6.94,-314.95 3.77,-473 -5.05,-251.59 11.93,-263.44 -219.91,-263.41l-2396.91 -0.48c-211.15,1.23 -142.34,-137.03 -142.41,-334.41 -0.09,-298.93 -19.4,-660.47 -0.8,-951.54 8.36,-130.7 305.19,-76.84 402.02,-76.93l1909.83 -0.2c308.17,-0.05 251.18,86.34 251.82,-698.51 0.07,-86.89 30.61,-394.97 -43.11,-435.45 -41.37,-22.72 -1714.5,-10.81 -1905.49,-10.82 -159.25,-0.01 -320.47,-2.73 -479.46,0.08 -164.76,2.91 -133.04,-26.22 -132.93,-352.73 0.04,-130.14 -26.62,-872.89 24.03,-929.99 35.28,-39.77 824.59,-21.33 938.37,-21.2l1438.08 -0.2c359.22,-0.23 321.17,29.52 345.13,-134.36 16.97,-116.05 29.24,-856.44 -19.61,-920.5 -67.69,-88.75 -326.16,-41.68 -434.86,-42.93 -159.41,-1.83 -317.05,-3.2 -476.55,-3.2 -621.42,0 -1301.92,-26.73 -1916.16,3.8z"/>
  </g>
  <g id="_2281352298928">
   <g>
    <path class="fil2" d="M6786.81 994.29c68.21,73.97 1176.63,668.08 1359.05,768.92 112.54,62.21 224.81,124.97 336.9,187.85 163.47,91.7 282.1,59.1 469.69,58.92 185.73,-0.18 938.53,-24.12 1061.11,9.06 36.65,224.83 7.04,771.83 6.65,1029.61l-0.05 3644.64c0,346.94 -115.66,292.76 743.21,293.57 86.23,0.08 172.46,-0.06 258.7,-0.02 93.46,0.04 185.52,32.83 206,-66.15 38.89,-187.95 10.02,-802.43 9.76,-1033.98l0.3 -4161.98c-0.03,-166.71 -7.43,-352.9 0.47,-517.14 14.37,-298.71 -48.73,-228.58 -301.94,-229.24l-3110.33 6.01c-320.19,0.31 -730.42,-23.11 -1039.52,9.93z"/>
    <path class="fil2" d="M12865.02 986.68c-18.51,9.59 -1229.73,2223.73 -1417.33,2554.91 -239.4,422.6 -120.57,604.8 85.74,988.1 307.46,571.23 636.27,1136.95 951.54,1704.65 75.89,136.64 172.62,284.88 241.44,419.91 88.42,173.49 100.33,311.81 330.59,336.47 192.1,20.57 451.05,-12.78 658.4,-5.96 102.04,3.35 538.74,67.09 526.48,-101.53 -4.47,-61.45 -865.32,-1497.76 -973.26,-1682.75 -160.03,-274.29 -332.8,-561.01 -481.18,-840.15 -303.95,-571.8 -280.43,-286.37 12.91,-851.49 286.05,-551.08 655.74,-1140.11 971.78,-1682.51 80.62,-138.37 157.56,-278.7 237.38,-416.74 50.43,-87.21 268.33,-322.97 151.32,-404.85 -98.11,-68.67 -492.29,-19.66 -635.83,-24.8 -73.66,-2.64 -628.82,-9.4 -659.98,6.74z"/>
   </g>
   <path class="fil2" d="M2812.11 157.37l7 6771.74 745.42 0.06c33.09,-240.66 8.47,-659.92 8.47,-920.72l0 -4725.03c0,-311.21 -8.03,-632.42 -1.54,-942.16 5.32,-253.45 -12.95,-186.72 -279.73,-184.6 -155.03,1.23 -326.45,8.58 -479.62,0.71z"/>
  </g>
  <g id="_2281352296624">
   <path class="fil2" d="M13073.9 7844.57c-71.98,-17.86 -435.86,-4.2 -537.66,-4.05 -296.91,0.44 -302.66,67.45 -280.38,-257.06l852.81 -1.31 -3.96 -218.42 -1062.36 0.32 -4.77 1141.97 1077.29 -3.01 -2.39 -210.59c-27.13,-23.33 -823.59,10.81 -852.81,-13.42l0.3 -241.82c18.36,-12.66 733.8,-6.84 818.34,-7.03l-4.41 -185.58z"/>
   <path class="fil2" d="M22491.94 7366.63c-267.73,-22.16 -223.55,-23.11 -223.61,216.83 -0.03,149.65 0.32,299.29 -0.09,448.94 -1.01,366.19 24.34,474.83 418.27,474.27 254.83,-0.35 576.44,74.23 637.03,-255.58 31.21,-169.9 19.35,-690.89 10.46,-884.97l-193.36 10.13c-13.71,32.92 -6.89,536.43 -7.83,618.09 -3.63,313.74 -28.67,290.1 -324.56,290.94 -329.57,0.94 -314.35,26.74 -314.6,-306.16 -0.13,-175.21 16.65,-449.41 -1.71,-612.49z"/>
   <path class="fil2" d="M10259.96 7582.98l830.71 -1.17 -3.94 -217.32 -1046.07 -0.8 -3.9 1145.54c33.61,-0.26 205.2,6.2 221.12,-8.22l0.39 -433.25 797.36 0.26c16.43,-22.45 3.71,-164.16 2.83,-200.74l-800.09 -1.44 1.59 -282.86z"/>
   <path class="fil2" d="M6157.55 8498.81c386.21,24.96 839.64,-3.41 1235.29,1.68 150.32,1.94 101.21,-40.95 101.71,-201.8 0.9,-296.26 6.87,-632.19 0.29,-922.08l-1343.25 2.56 5.96 1119.64z"/>
   <path class="fil2" d="M8047.97 7379.08c-9.58,257.93 -1.26,648.17 0.21,927.22 0.88,167.91 -46.81,191.88 112.88,190.33 150.68,-1.45 1172.52,15.96 1230.28,-8.85l0.17 -1112.73 -1343.54 4.03z"/>
   <path class="fil2" d="M16638.02 8503.54c223.57,18.15 211.28,0.63 248.6,-76.49 47.59,-98.35 282.58,-638.78 311.2,-648.44l0.22 726.06 203.2 0.68 -0.31 -1130.35c-16.77,-13.93 -199.59,-5.92 -234.51,-5.91l-422.46 897.36c-28.36,-16.57 -211.57,-462.42 -248.77,-532.98 -41.6,-78.9 -87.24,-182.76 -123.52,-264.18 -65.47,-146.87 -112.14,-110.52 -284.79,-104.04l0.27 1141.28c30.23,-0.34 186.72,4.84 201.13,-7.67l1.02 -707.99 348.72 712.67z"/>
   <path class="fil2" d="M14123.64 7588.16c143.44,-12.36 333.18,-1.34 482.22,-2.09 188.76,-0.95 312.8,-47.24 310.97,172.43 -1.85,220.78 -120.6,170.24 -310.97,170.83 -154.76,0.48 -329.3,7.94 -481.89,-1.03l-0.33 -340.14zm651.79 550.91c95.19,-55.42 306.64,39.4 350.49,-240.04 22.32,-142.28 30.54,-384.98 -98.15,-478.72 -118.03,-85.97 -936.13,-67.33 -1122.78,-54.08l1.83 1136.87 212.69 0.25 7.33 -364.15c23.6,-14.02 304.08,-13.16 338.25,-3.11 33.31,9.8 150.69,133.37 183.13,165.88 212.72,213.25 163.82,225.06 498.64,203.25l-371.43 -366.15z"/>
   <path class="fil2" d="M24557.63 7583.24c150.97,-7.35 319.2,0.31 472.42,-0.11 210.16,-0.58 301.57,-54.09 300.88,175.46 -0.68,224.28 -112.74,171.16 -308.49,171.02 -153.62,-0.11 -314.47,5.33 -467.74,-0.57l2.93 -345.8zm634.89 550.61c167.14,-48.73 311.52,14.34 354.62,-238.71 23.36,-137.12 40.16,-372.14 -86.97,-467.92 -117.6,-88.61 -940.7,-72.05 -1125.14,-56.46l1.7 1134.85 214.99 -2.58 7.04 -362.9c24.72,-18.69 299.29,-16.31 337.29,-3.7 25.89,8.59 151.94,139.84 181,168.61 220.1,217.98 155.06,215.7 494.86,199.94l-379.39 -371.13z"/>
   <path class="fil2" d="M28520.79 8289.41c-37.29,291.46 34.94,219.54 290.87,219.2 174.95,-0.23 350.11,0.73 525.02,-0.34 162.09,-1 272.96,-29.51 317.35,-202.4 31.7,-123.44 28.18,-323.38 -85.29,-406.7 -110.92,-81.44 -332.5,-57.45 -467.94,-57.42 -148.48,0.03 -391.04,57.39 -393.35,-128.87 -2.35,-190.11 236.31,-129.49 393.35,-129.71 145.77,-0.2 380.16,13.27 516.7,-1.86l-0.74 -210.44c-123.47,-13.78 -867.63,-12.54 -958.41,19.63 -236.3,83.75 -243.68,572.53 14.87,625.9 377.29,77.89 850.35,-123.59 758.51,211.06 -34.93,127.3 -711.42,19.14 -910.94,61.95z"/>
   <path class="fil2" d="M27526.75 7841.64c-175.22,-7.08 -364.26,-0.15 -541.22,-0.84 -298.63,-1.17 -301.45,71.75 -279.69,-258.41l853.6 0.89 -1.6 -214.6 -1069.86 0.96 3.05 1135.54 1073.26 -1.85c-0.2,-33.29 6.7,-195.56 -6.94,-212.8l-844.34 -0.81c-15.08,-16.41 -6.63,-222.04 -6.58,-259.34l821.76 -0.57 -1.44 -188.17z"/>
   <path class="fil2" d="M18598.57 8028.23l814.32 1.56 5.69 -7.09 -6.01 -175.39 -827.22 2.47 0 -281.49c94.7,0 817.75,18.12 836.98,-7.61 22.99,-17.13 7.1,-139.28 8.02,-175.67l-1043.1 0.66 0.14 1102.51 1042.54 0.73 0 -190.9c-262.7,26.93 -576.3,8.25 -852.19,8.25l0.34 -251.99c11.05,-39.18 -11.11,-15.91 20.49,-26.04z"/>
   <polygon class="fil2" points="20343.23,7581.85 20738.63,7583.78 20749.79,8508.67 20966.67,8507.35 20967.66,7590.57 21375.73,7580.11 21374.22,7369.09 20340.78,7369.24 "/>
  </g>
  <g id="_2281352294672">
   <path class="fil3" d="M4255.2 7375.73c-16.7,120.13 -2.65,725.47 -3.09,930.57 -0.35,163.06 -46.68,194.33 104.38,192.97 143.66,-1.31 1183.84,15.62 1227.42,-7.99l8.06 -1116.56 -1336.77 1.01z"/>
   <polygon class="fil3" points="2344.56,8487.21 3684.69,8486.39 3681.99,7375.8 2344.31,7376 "/>
   <g>
    <path class="fil3" d="M634.15 2355.88c-0.55,-263.35 -82.97,-646.94 174.11,-770.99 206.43,-99.62 414.8,-211.28 620.07,-315.69 206.24,-104.9 412.61,-211.79 619.28,-315.38 98.04,-49.15 224.42,-147.13 333.67,-69.73 92.85,65.77 57.52,357.66 58.06,506.92 5.86,1638.21 -6.41,3286.28 3.77,4923.46 2.68,430.26 -222.74,310.42 -530.31,318.5l-287.72 1.4c-200.18,0.3 -801.77,13.37 -883.42,-15.46 -156.67,-55.32 -106.01,-363.68 -105.9,-505.19l-1.61 -3757.84zm2930.38 4573.29l-745.42 -0.06 -7 -6771.74c153.17,7.87 324.59,0.52 479.62,-0.71 266.78,-2.12 285.05,-68.85 279.73,184.6 -6.49,309.74 1.54,630.95 1.54,942.16l0 4725.03c0,260.8 24.62,680.06 -8.47,920.72zm17.63 -6788.85c-206.93,-3.71 -413.25,0.63 -620.08,-3.51 -181.88,-3.64 -294.17,87.7 -449.67,170.78l-1610.85 868.9c-551.12,293.17 -463.53,140.36 -463.37,784.11 0.21,831.87 0.98,1663.81 -0.44,2495.67 -1.4,814.6 -25.95,1676.32 2.69,2486.36l3133.14 1.65 8.58 -6803.96z"/>
    <path class="fil3" d="M753.57 4060.62c66.46,370.63 207.31,109.94 180.31,-149.98 -39.2,-377.53 -222.28,-84.06 -180.31,149.98z"/>
   </g>
  </g>
  <path class="fil4" d="M4870.25 6930.67l-9.43 -6765.77c-147.99,-14.55 -361.22,-10.32 -510.49,-4.8 -333.3,12.32 -248.01,-70.74 -259.28,257.24 -11.67,339.88 -1.1,699.13 -1.06,1041.08l0.34 4177.21c0.01,342.72 -9.83,700.04 0.97,1040.93 10.28,324.27 -67.87,241.32 259.01,251.88 171.79,5.56 347.16,-1.04 519.94,2.23z"/>
 </g>
</svg>
